<svg id="eh7gND6Smwc1" xmlns="http://www.w3.org/2000/svg" xmlns:xlink="http://www.w3.org/1999/xlink" viewBox="0 0 300 300" shape-rendering="geometricPrecision" text-rendering="geometricPrecision" project-id="a977267414f24f668795fd57c0b80e56" export-id="dfbe1ac1541e47529928f076fda82423" cached="false"><defs><linearGradient id="eh7gND6Smwc2-fill" x1="0.946202" y1="1" x2="0.174077" y2="0" spreadMethod="pad" gradientUnits="objectBoundingBox" gradientTransform="translate(0 0)"><stop id="eh7gND6Smwc2-fill-0" offset="100%" stop-color="#0e8e09"/><stop id="eh7gND6Smwc2-fill-1" offset="100%" stop-color="#9c7441"/></linearGradient></defs><path d="M-103.988209,-0.656077C-105.300364,-80.697475,-83.649821,-104.768424,0,-104.378317s104.644287,19.088303,104.378317,104.378317-16.792033,103.332132-104.378317,104.378317-102.676055-19.74438-103.988209-105.034394Z" transform="matrix(1.180665 0 0 1.180665 150 149.982705)" paint-order="fill markers stroke" fill="url(#eh7gND6Smwc2-fill)" stroke-width="0"/><path d="M200,60q-70,20-50,60c20,40,60-20,50-60Z" transform="matrix(1.660494 0 0 1.824975-104.681059-39.498467)" fill="#fff" stroke-width="0.6"/><path d="M180,140q-21.213918,8.997066-35.606959,39.498533C130,210,180,160.000001,180,140Z" transform="matrix(1.190811 0 0 1.482366-30.714224-79.190264)" fill="#0e8e09" stroke-width="0.6"/><path d="M70,120q60.134012-1.002932,67.263527,59.498534C144.393042,240,50,180,70,120Z" fill="#fff" stroke-width="0.6"/><path d="M110,170q27.263527,3.646211,27.263527,18.340989C137.263527,203.035767,117.517927,190,110,170Z" transform="matrix(1.345087 0.002512-.002909 1.557889-37.465005-95.117459)" fill="#0e8e09" stroke-width="0.6"/><path d="M183.631764,128.340976Q227.417741,80,227.417741,70t-43.785977,58.340976Z" transform="translate(.000002 0)" fill="none" stroke="#0e8e09" stroke-width="0.6"/><path d="" fill="none" stroke="#3f5787" stroke-width="0.6"/><path d="M183.631766,136.397018L240,110l-10,39.208098-60,12.301924-19.798762,8.558449l55.323517,9.430062L200,198.641701q-50.201238-11.891246-50-10.266473t-11.698267-60.034252L144.393041,110l16.573704,50L170,149.208098L160.966745,90l22.665021-10v56.397018Z" fill="none" stroke="#0e8e09" stroke-width="0.6"/></svg>
